<svg xmlns="http://www.w3.org/2000/svg" width="527" height="150" viewBox="0 0 527 150"><defs>
<linearGradient id="pFl" x1="50.4" y1="22.4" x2="124.2" y2="141.3" gradientUnits="userSpaceOnUse">
  <stop offset="0" stop-color="rgba(255,255,255,.16)"/><stop offset=".45" stop-color="rgba(255,255,255,.055)"/><stop offset="1" stop-color="rgba(255,255,255,.02)"/></linearGradient>
<linearGradient id="pSl" x1="102.1" y1="15.8" x2="157.0" y2="133.1" gradientUnits="userSpaceOnUse">
  <stop offset="0" stop-color="rgba(255,255,255,.22)"/><stop offset=".55" stop-color="rgba(255,255,255,.07)"/><stop offset="1" stop-color="#b06bf9" stop-opacity=".12"/></linearGradient>
<linearGradient id="eFl" x1="91.4" y1="20.8" x2="91.4" y2="133.9" gradientUnits="userSpaceOnUse">
  <stop offset="0" stop-color="rgba(255,255,255,.8)"/><stop offset="1" stop-color="rgba(255,255,255,.16)"/></linearGradient>
<linearGradient id="eSl" x1="112.7" y1="10.9" x2="163.6" y2="124.1" gradientUnits="userSpaceOnUse">
  <stop offset="0" stop-color="rgba(255,255,255,.65)"/><stop offset="1" stop-color="rgba(255,255,255,.1)"/></linearGradient>
<linearGradient id="pIl" x1="66.8" y1="0" x2="120.9" y2="0" gradientUnits="userSpaceOnUse">
  <stop offset="0" stop-color="rgba(244,245,250,.85)"/><stop offset=".55" stop-color="rgba(244,245,250,.35)"/><stop offset="1" stop-color="rgba(244,245,250,.05)"/></linearGradient>
<radialGradient id="enl" cx="66.8" cy="75.7" r="13.12" gradientUnits="userSpaceOnUse"><stop offset="0" stop-color="rgb(244,245,250)" stop-opacity="0.55"/><stop offset="1" stop-color="rgb(244,245,250)" stop-opacity="0"/></radialGradient>
<filter id="b1l" x="-60%" y="-60%" width="220%" height="220%"><feGaussianBlur stdDeviation="1.1"/></filter>
<filter id="b3l" x="-60%" y="-60%" width="220%" height="220%"><feGaussianBlur stdDeviation="2.6"/></filter><filter id="cbl" x="-40%" y="-40%" width="180%" height="180%"><feGaussianBlur stdDeviation="4"/></filter><linearGradient id="bgl0" x1="120.92" y1="74.88" x2="258" y2="23.700000000000003" gradientUnits="userSpaceOnUse"><stop offset="0" stop-color="#5b8bf7" stop-opacity=".9"/><stop offset="1" stop-color="#5b8bf7" stop-opacity="0"/></linearGradient><linearGradient id="cgl0" x1="120.92" y1="74.88" x2="258" y2="23.700000000000003" gradientUnits="userSpaceOnUse"><stop offset="0" stop-color="#5b8bf7" stop-opacity=".28"/><stop offset=".85" stop-color="#5b8bf7" stop-opacity="0"/></linearGradient><linearGradient id="bgl1" x1="120.92" y1="74.88" x2="258" y2="56.7" gradientUnits="userSpaceOnUse"><stop offset="0" stop-color="#b06bf9" stop-opacity=".9"/><stop offset="1" stop-color="#b06bf9" stop-opacity="0"/></linearGradient><linearGradient id="cgl1" x1="120.92" y1="74.88" x2="258" y2="56.7" gradientUnits="userSpaceOnUse"><stop offset="0" stop-color="#b06bf9" stop-opacity=".28"/><stop offset=".85" stop-color="#b06bf9" stop-opacity="0"/></linearGradient><linearGradient id="bgl2" x1="120.92" y1="74.88" x2="258" y2="92.7" gradientUnits="userSpaceOnUse"><stop offset="0" stop-color="#2dd4bf" stop-opacity=".9"/><stop offset="1" stop-color="#2dd4bf" stop-opacity="0"/></linearGradient><linearGradient id="cgl2" x1="120.92" y1="74.88" x2="258" y2="92.7" gradientUnits="userSpaceOnUse"><stop offset="0" stop-color="#2dd4bf" stop-opacity=".28"/><stop offset=".85" stop-color="#2dd4bf" stop-opacity="0"/></linearGradient><linearGradient id="bgl3" x1="120.92" y1="74.88" x2="258" y2="125.7" gradientUnits="userSpaceOnUse"><stop offset="0" stop-color="#f5a524" stop-opacity=".9"/><stop offset="1" stop-color="#f5a524" stop-opacity="0"/></linearGradient><linearGradient id="cgl3" x1="120.92" y1="74.88" x2="258" y2="125.7" gradientUnits="userSpaceOnUse"><stop offset="0" stop-color="#f5a524" stop-opacity=".28"/><stop offset=".85" stop-color="#f5a524" stop-opacity="0"/></linearGradient><linearGradient id="ri" x1="0" y1="0" x2="66.8" y2="0" gradientUnits="userSpaceOnUse"><stop offset="0" stop-color="rgb(244,245,250)" stop-opacity="0"/><stop offset=".25" stop-color="rgb(244,245,250)" stop-opacity=".9"/></linearGradient><linearGradient id="wm" x1="280" y1="0" x2="513.1462686567164" y2="0" gradientUnits="userSpaceOnUse"><stop offset="0" stop-color="#b06bf9"/><stop offset=".34" stop-color="#5b8bf7"/><stop offset=".67" stop-color="#2dd4bf"/><stop offset="1" stop-color="#f5a524"/></linearGradient></defs><line x1="0" y1="75.7" x2="66.8" y2="75.7" stroke="url(#ri)" stroke-width="2" stroke-linecap="round"/><polygon points="120.92,74.88 262.5470744690785,35.878838769466256 253.45292553092148,11.521161230533748" fill="url(#cgl0)" filter="url(#cbl)"/><polygon points="120.92,74.88 259.7091372803699,69.58715832745334 256.2908627196301,43.81284167254667" fill="url(#cgl1)" filter="url(#cbl)"/><polygon points="120.92,74.88 256.32413899905686,105.59152783441581 259.67586100094314,79.80847216558419" fill="url(#cgl2)" filter="url(#cbl)"/><polygon points="120.92,74.88 253.48103282723227,137.88929594732394 262.51896717276776,113.51070405267608" fill="url(#cgl3)" filter="url(#cbl)"/><line x1="120.92" y1="74.88" x2="258" y2="23.700000000000003" stroke="url(#bgl0)" stroke-width="2.2" stroke-linecap="round"/><line x1="120.92" y1="74.88" x2="258" y2="56.7" stroke="url(#bgl1)" stroke-width="2.2" stroke-linecap="round"/><line x1="120.92" y1="74.88" x2="258" y2="92.7" stroke="url(#bgl2)" stroke-width="2.2" stroke-linecap="round"/><line x1="120.92" y1="74.88" x2="258" y2="125.7" stroke="url(#bgl3)" stroke-width="2.2" stroke-linecap="round"/>
<path d="M112.7,10.9 L61.9,124.1" stroke="rgba(255,255,255,.06)" stroke-width="0.8"/>
<polygon points="91.4,20.8 142.2,133.9 163.6,124.1 112.7,10.9" fill="url(#pSl)" stroke="url(#eSl)" stroke-width="1.0" stroke-linejoin="round"/>
<polygon points="142.2,133.9 163.6,124.1 157.0,121.6 137.3,130.6" fill="rgba(255,255,255,.03)"/>
<polygon points="91.4,20.8 40.6,133.9 142.2,133.9" fill="url(#pFl)" stroke="url(#eFl)" stroke-width="1.2" stroke-linejoin="round"/>
<line x1="91.4" y1="20.8" x2="112.7" y2="10.9" stroke="rgba(255,255,255,.85)" stroke-width="1.2" stroke-linecap="round"/>
<circle cx="91.4" cy="20.8" r="1.8" fill="rgba(255,255,255,.9)" filter="url(#b1l)"/>
<polygon points="83.2,40.4 88.9,37.2 61.1,114.2 55.3,111.8" fill="rgba(255,255,255,.10)" filter="url(#b3l)"/>
<g filter="url(#b1l)" stroke-width="1.4" stroke-opacity=".45">
  <line x1="66.8" y1="75.7" x2="120.1" y2="68.3" stroke="#5b8bf7"/>
  <line x1="66.8" y1="75.7" x2="120.9" y2="72.4" stroke="#b06bf9"/>
  <line x1="66.8" y1="75.7" x2="120.9" y2="77.3" stroke="#2dd4bf"/>
  <line x1="66.8" y1="75.7" x2="120.1" y2="81.4" stroke="#f5a524"/>
</g>
<line x1="66.8" y1="75.7" x2="119.3" y2="74.9" stroke="url(#pIl)" stroke-width="1.6"/>
<circle cx="66.8" cy="75.7" r="13.1" fill="url(#enl)"/>
<g filter="url(#b3l)" fill-opacity=".35">
  <circle cx="120.9" cy="69.1" r="4.1" fill="#5b8bf7"/>
  <circle cx="121.7" cy="73.2" r="4.1" fill="#b06bf9"/>
  <circle cx="121.7" cy="77.3" r="4.1" fill="#2dd4bf"/>
  <circle cx="120.9" cy="81.4" r="4.1" fill="#f5a524"/>
</g><g transform="translate(280,101.7) scale(0.7761194029850746)"><path d="M21.8 0.0H3.0V-67.0H40.1Q52.1 -67.0 59.05 -60.400000000000006Q66.0 -53.800000000000004 66.0 -42.0Q66.0 -30.200000000000003 59.05 -23.550000000000004Q52.1 -16.900000000000002 40.1 -16.900000000000002H21.8ZM38.0 -50.1H21.8V-33.800000000000004H38.0Q43.2 -33.800000000000004 45.25 -35.400000000000006Q47.300000000000004 -37.0 47.300000000000004 -42.0Q47.300000000000004 -46.900000000000006 45.25 -48.5Q43.2 -50.1 38.0 -50.1Z M87.8 0.0H69.0V-50.400000000000006H86.6V-37.2H87.6Q88.7 -43.800000000000004 92.85 -47.60000000000001Q97.0 -51.400000000000006 104.2 -51.400000000000006Q112.2 -51.400000000000006 115.95 -46.7Q119.7 -42.0 119.7 -34.0V-24.0H100.9V-29.900000000000002Q100.9 -33.1 99.5 -34.35Q98.1 -35.6 94.4 -35.6Q90.6 -35.6 89.19999999999999 -34.400000000000006Q87.8 -33.2 87.8 -30.1Z M141.5 -55.0H122.7V-67.0H141.5ZM141.5 0.0H122.7V-50.400000000000006H141.5Z M173.6 1.0Q160.4 1.0 153.35000000000002 -3.8500000000000005Q146.3 -8.700000000000001 146.3 -17.5V-17.900000000000002H165.1V-16.900000000000002Q165.1 -14.9 166.75 -14.350000000000001Q168.4 -13.8 173.7 -13.8Q178.3 -13.8 179.75 -14.3Q181.2 -14.8 181.2 -16.2Q181.2 -17.400000000000002 180.2 -17.85Q179.2 -18.3 175.7 -18.7L161.1 -20.3Q145.1 -22.0 145.1 -34.800000000000004Q145.1 -42.1 151.45 -46.75Q157.8 -51.400000000000006 171.1 -51.400000000000006Q197.9 -51.400000000000006 197.9 -32.7V-32.300000000000004H179.1V-32.9Q179.1 -35.0 177.5 -35.85Q175.9 -36.7 170.5 -36.7Q166.2 -36.7 164.89999999999998 -36.1Q163.6 -35.5 163.6 -34.0Q163.6 -32.9 164.85 -32.3Q166.1 -31.700000000000003 170.3 -31.3L180.3 -30.200000000000003Q191.0 -29.0 195.35 -25.4Q199.7 -21.8 199.7 -15.200000000000001Q199.7 -8.0 192.8 -3.5Q185.9 1.0 173.6 1.0Z M222.0 0.0H203.2V-50.400000000000006H220.79999999999998V-35.1H221.79999999999998Q222.7 -42.300000000000004 227.04999999999998 -46.85000000000001Q231.39999999999998 -51.400000000000006 240.2 -51.400000000000006Q248.7 -51.400000000000006 253.35 -46.900000000000006Q258.0 -42.400000000000006 258.8 -35.1H259.8Q260.7 -42.300000000000004 265.2 -46.85000000000001Q269.7 -51.400000000000006 278.8 -51.400000000000006Q288.1 -51.400000000000006 292.95000000000005 -46.150000000000006Q297.8 -40.900000000000006 297.8 -32.300000000000004V0.0H279.0V-25.400000000000002Q279.0 -30.700000000000003 277.0 -32.650000000000006Q275.0 -34.6 269.2 -34.6Q263.6 -34.6 261.75 -32.8Q259.9 -31.0 259.9 -26.0V0.0H241.1V-25.400000000000002Q241.1 -30.700000000000003 239.1 -32.650000000000006Q237.1 -34.6 231.29999999999998 -34.6Q225.7 -34.6 223.85 -32.8Q222.0 -31.0 222.0 -26.0Z" fill="url(#wm)"/></g></svg>